<?xml version="1.0" encoding="UTF-8" standalone="no"?>
<!-- Created with Inkscape (http://www.inkscape.org/) -->
<svg id="svg2" xmlns:rdf="http://www.w3.org/1999/02/22-rdf-syntax-ns#" xmlns="http://www.w3.org/2000/svg" height="1024" width="1024" version="1.1" xmlns:cc="http://creativecommons.org/ns#" xmlns:xlink="http://www.w3.org/1999/xlink" xmlns:dc="http://purl.org/dc/elements/1.1/">
 <defs id="defs4">
  <mask id="mask3961" maskUnits="userSpaceOnUse">
   <rect id="rect3963" ry="71.875" height="1024" width="1024" y="0" x="0" fill="#fff"/>
  </mask>
  <linearGradient id="linearGradient4097" y2="1697.4" gradientUnits="userSpaceOnUse" x2="511.68" y1="28.688" x1="511.68">
   <stop id="stop4093" stop-color="#1b4488" offset="0"/>
   <stop id="stop4095" stop-color="#1b4488" stop-opacity="0" offset="1"/>
  </linearGradient>
 </defs>
 <metadata id="metadata7">
  <rdf:RDF>
   <cc:Work rdf:about="">
    <dc:format>image/svg+xml</dc:format>
    <dc:type rdf:resource="http://purl.org/dc/dcmitype/StillImage"/>
    <dc:title/>
   </cc:Work>
  </rdf:RDF>
 </metadata>
 <g id="layer9" display="none">
  <rect id="rect4123" mask="url(#mask3961)" height="1024" width="1024" y="0" x="0" fill="#fff"/>
 </g>
 <g id="layer7" mask="url(#mask3961)">
  <rect id="rect3764" height="1024" width="1024" y="0" x="0" fill="url(#linearGradient4097)"/>
  <rect id="rect5264" height="300" width="1024" y="724" x="0" fill="#6c7d96"/>
 </g>
 <g id="layer4" fill="#fff">
  <ellipse id="path2993" rx="104.89" transform="translate(11.889 25.328)" ry="87.5" cy="132.07" cx="597.28"/>
  <path id="path3776" d="m414.06 280.76 454.35 153.26-25 29.348-488.04-96.739z"/>
  <path id="path3778" d="m216.45 585.66 360.83-100.5 136.29-1.1188 44.703 48.11 114.48 172.53h-53.415l-113.4-138.97-118.84-2.24-249.68 141.21h-200.52z"/>
  <rect id="rect3784" height="30" width="1030.9" y="722" x="0"/>
  <path id="path4233" d="m875 438.06 25 9.375l-251.56 303.12-34.38-1.56z" fill-rule="evenodd"/>
 </g>
 <g id="layer3">
  <text id="text3970" style="word-spacing:0px;letter-spacing:0px" font-weight="bold" xml:space="preserve" font-size="185px" line-height="125%" y="939.00323" x="4.8125" font-family="Century" font-style="italic" fill="#ffffff"><tspan id="tspan3972" x="4.8125" y="939.00323">Crew</tspan></text>
  <text id="text3970-7" style="word-spacing:0px;letter-spacing:0px" font-weight="bold" xml:space="preserve" font-size="185px" line-height="125%" y="939.66199" x="554.62231" font-family="Century" font-style="italic" fill="#ffffff"><tspan id="tspan3972-2" x="554.62231" y="939.66199">imer</tspan></text>
  <rect id="rect3989" height="24" width="262" y="802" x="433.94" fill="#fff"/>
  <path id="path4250" d="m589.06 822.44-137.5 162.5-36.375 1.5625 137.5-164.06z" fill-rule="evenodd" fill="#fff"/>
 </g>
 <g id="layer1" transform="translate(50.25 211.52)" display="none">
  <path id="path5" d="m301.95-211.52h319.59c101.42 0 152.12 0 206.71 17.26 59.597 21.692 106.54 68.639 128.24 128.24 17.26 54.579 17.26 105.29 17.26 206.7v319.59c0 101.42 0 152.12-17.26 206.71-21.692 59.598-68.639 106.54-128.24 128.24-54.585 17.26-105.29 17.26-206.71 17.26h-319.59c-101.42 0-152.12 0-206.71-17.26-59.591-21.69-106.54-68.64-128.23-128.24-17.26-54.58-17.26-105.29-17.26-206.71v-319.59c0-101.42 0-152.12 17.26-206.71 21.692-59.598 68.639-106.54 128.24-128.24 54.585-17.26 105.29-17.26 206.71-17.26" stroke="#000" fill="none"/>
 </g>
 <g id="layer6" fill="#fff" display="none">
  <path id="path4146" style="color:#000000" d="m-0.035156 708.41c0.055642 38.758 0.61632 71.022 3.4892 100.19 0.87578 8.8904 2.0231 17.507 3.3647 25.913 2.7292 17.101 6.2516 30.632 10.625 44.629 0.9831 3.1466 2.3439 6.0091 3.5468 8.8984 4.9544 11.9 10.442 22.625 16.752 32.231 7.4824 11.39 16.591 23.442 26.69 33.796 11.282 11.566 22.163 20.606 34.238 28.786 7.7539 5.2523 15.168 9.8098 23.655 13.919 3.3433 1.6187 6.7835 3.2575 10.455 4.8747 6.0106 2.6472 12.647 5.2405 20.382 7.4312 16.339 4.6274 37.836 9.5058 66.674 11.786 26.049 2.0596 58.072 3.2184 99.208 3.1754h-319.08z" display="inline"/>
  <path id="path4146-5" style="color:#000000" d="m1024 708.38c-0.028 33.525-0.3641 57.519-2.1872 86.13-2.1429 33.631-7.6767 62.031-16.131 85.827-5.1582 14.519-11.404 27.324-18.63 38.558-10.393 16.158-22.651 31.168-36.895 44.464-6.8645 6.4078-13.969 11.816-21.919 17.502-10.374 7.4196-20.225 13.062-32.182 18.638-10.69 4.9858-23.165 9.4996-39.906 13.451-11.585 2.7344-25.212 5.3376-41.704 7.0737-27.233 2.8667-62.178 3.4121-108.26 3.9801h317.81z" display="inline"/>
  <path id="path4146-5-3" style="color:#000000" d="m1024 318.26c0.1837-39.141-0.2997-73.559-3.476-103.94-1.4113-13.5-3.8539-26.31-5.9548-38.188-3.6187-20.458-10.117-38.447-17.297-52.709-2.1275-4.2261-3.9073-7.5546-5.7778-10.817-1.4979-2.6122-3.054-5.1818-4.8935-8.1356-1.9604-3.1479-3.8735-6.1959-5.993-9.1971-5.73-8.027-12.21-15.91-18.95-23.177-10.07-10.841-21.26-20.982-33.89-29.385-18.04-12.004-33.3-21.308-61.68-29.083-12.9-3.534-28.69-6.869-48.66-9.2268-27.34-3.2267-62.77-4.3075-111.24-4.3882h317.81z" display="inline"/>
  <path id="path4146-5-3-7" style="color:#000000" d="m0 318.48c0.044384-54.27 1.9515-103.05 8.7982-140.02 5.9568-32.17 15.843-54.48 29.092-75.08 15.401-23.945 35.125-45.185 59.36-61.349 14.55-9.707 27.24-16.721 46.14-23.976 9.86-3.784 21.35-6.586 34.7-9.1823 30.23-5.8814 72.61-9.1653 140.99-8.8727h-319.08z" display="inline"/>
 </g>
 <g id="layer2" transform="translate(0 -2.2054)" display="none" stroke="#000" fill="none">
  <path id="path4024" style="color:#000000" d="m0.99802 321.04v386.28" display="inline" stroke-width="2"/>
  <circle id="path3129" style="color:#000000" display="inline" cx="462.32" transform="matrix(1.9888 0 0 1.9885 -407.91 -80.586)" cy="298.86" r="138" stroke-width="1.0057"/>
  <circle id="path3129-9" style="color:#000000" display="inline" cx="462.32" transform="matrix(3.2215 0 0 3.2212 -977.39 -448.56)" cy="298.86" r="138" stroke-width=".62086"/>
  <g stroke-width="2">
   <path id="path4011" style="color:#000000" d="m67.352 69.49 889.21 889.22" display="inline"/>
   <path id="path4028" style="color:#000000" d="m0.99801 707.31h1022" display="inline"/>
   <path id="path4030" style="color:#000000" d="m0.99801 513.69h1022" display="inline"/>
   <path id="path4032" style="color:#000000" d="m0.99801 321.04h1022" display="inline"/>
   <path id="path4034" style="color:#000000" d="m319.08 1026.2v-1024" display="inline"/>
   <path id="path4036" style="color:#000000" d="m511.68 2.2054v1024" display="inline"/>
   <path id="path4038" style="color:#000000" d="m706.19 1026.2v-1024" display="inline"/>
   <path id="path4001" style="color:#000000" d="m67.352 958.71 889.21-889.22" display="inline"/>
   <path id="path4003" style="color:#000000" d="m956.56 69.49v889.22" display="inline"/>
   <path id="path4009" style="color:#000000" d="m67.352 69.49h889.21" display="inline"/>
   <path id="path4007" style="color:#000000" d="m67.352 958.71v-889.22" display="inline"/>
   <path id="path4005" style="color:#000000" d="m956.56 958.71-889.21-0.00003" display="inline"/>
  </g>
  <circle id="path3129-7" style="color:#000000" display="inline" cx="462.32" transform="matrix(1.4026 0 0 1.3964 -135.8 96.57)" cy="298.86" r="138" stroke-width="1.4291"/>
 </g>
</svg>
